# xmcd
#
# Track frame offsets:
#	150
#	17607
#	36290
#	54108
#	67244
#	89264
#	107044
#	126648
#	144125
#	159333
#	175963
#	191285
#	215326
#	231686
#	249374
#	270276
#	291114
#	307010
#	328592
#
# Disc length: 4640 seconds
#
# Revision: 1
# Processed by: cddbd v1.5.1PL0 Copyright (c) Steve Scherf et al.
# Submitted via: audiograbber 1.83.01
#
DISCID=0f121e13
DTITLE=Лицей - Звезды Российской Эстрады
DYEAR=2003
DGENRE=
TTITLE0=Ты станешь взрослой
TTITLE1=Куда течет река
TTITLE2=Ты стала другой
TTITLE3=Красная помада
TTITLE4=Домашний арест
TTITLE5=Лей, дождь
TTITLE6=Субботний вечер
TTITLE7=Я спешу за любовью
TTITLE8=Девушка зима
TTITLE9=Паровозик-облачко
TTITLE10=Хороший парень
TTITLE11=Высокий блондин
TTITLE12=Какая долгая зима
TTITLE13=Как стать самим собой
TTITLE14=Осень
TTITLE15=Незнакомка
TTITLE16=Звезда
TTITLE17=В цветущий край
TTITLE18=Небо
EXTD=
EXTT0=
EXTT1=
EXTT2=
EXTT3=
EXTT4=
EXTT5=
EXTT6=
EXTT7=
EXTT8=
EXTT9=
EXTT10=
EXTT11=
EXTT12=
EXTT13=
EXTT14=
EXTT15=
EXTT16=
EXTT17=
EXTT18=
PLAYORDER=
